Coordinates
version=1
nRows=11
nColumns=36
inDegrees=yes

Units are S.I. units (second, meters, Newtons, ...)
If the header above contains a line with 'inDegrees', this indicates whether rotational values are in degrees (yes) or radians (no).

endheader
time	pelvis_tilt	pelvis_list	pelvis_rotation	pelvis_tx	pelvis_ty	pelvis_tz	hip_flexion_r	hip_adduction_r	hip_rotation_r	knee_angle_r	knee_angle_r_beta	ankle_angle_r	subtalar_angle_r	mtp_angle_r	hip_flexion_l	hip_adduction_l	hip_rotation_l	knee_angle_l	knee_angle_l_beta	ankle_angle_l	subtalar_angle_l	mtp_angle_l	lumbar_extension	lumbar_bending	lumbar_rotation	arm_flex_r	arm_add_r	arm_rot_r	elbow_flex_r	pro_sup_r	arm_flex_l	arm_add_l	arm_rot_l	elbow_flex_l	pro_sup_l
      4.87500000	    -27.10813060	      1.33277158	      3.37443983	      0.15572221	      0.71090570	     -0.10402120	     78.69721873	    -13.44714318	      2.17747397	     79.53733229	      1.38818833	     22.87104145	    -13.44993807	     -7.49999987	     78.12429778	     -8.61089661	     -7.61715468	     78.62027209	      1.37218261	     26.20361325	      6.63493103	     -7.49999987	    -31.64224403	      0.04507538	      0.47891678	     86.66278386	    -16.62824792	     31.16995325	    125.57057339	    107.67200796	     98.50776754	    -16.15223329	     48.43415992	    117.66982789	     99.99972629
      4.87916670	    -27.06054049	      1.30721649	      3.41401508	      0.15592765	      0.71296274	     -0.10290332	     78.27402113	    -13.47444556	      2.09879967	     79.21343907	      1.38253532	     22.99135428	    -13.36210477	     -7.49999987	     77.75702310	     -8.52894172	     -7.56051067	     78.34707286	      1.36741438	     26.21174056	      6.60943679	     -7.49999987	    -31.25341538	      0.12239743	      0.56591775	     86.32348710	    -16.68656331	     31.17834737	    125.65283927	    107.63160691	     98.08886723	    -15.91913586	     48.64255199	    117.94558787	    100.21647884
      4.88333330	    -26.95668337	      1.35709738	      3.41084384	      0.15449305	      0.71806608	     -0.10248763	     77.70722950	    -13.39002673	      2.13121656	     78.57756156	      1.37143717	     23.16927787	    -13.03613232	     -7.49999987	     77.29549569	     -8.47030180	     -7.57001845	     77.78379916	      1.35758340	     26.04432590	      6.42821257	     -7.49999987	    -31.09386869	      0.12967480	      0.65092367	     86.25395181	    -16.72361131	     31.30334003	    125.55917703	    107.58649042	     97.79409397	    -15.72693710	     48.88605296	    118.25708420	    100.29958881
      4.88750000	    -26.84334537	      1.40344371	      3.43822279	      0.15465118	      0.72045680	     -0.10420589	     77.16483025	    -13.45513107	      2.08598097	     77.91844637	      1.35993344	     23.34563146	    -12.68331349	     -7.49999987	     76.88714396	     -8.25308447	     -7.52040569	     77.24946830	      1.34825757	     25.72617090	      6.02586354	     -7.49999987	    -31.05327542	      0.24810546	      0.63938903	     86.30368144	    -16.81255196	     31.48792162	    125.45760478	    107.02892723	     97.62281156	    -15.75367780	     48.79431138	    118.42898824	    101.28241814
      4.89166670	    -26.78431914	      1.41929270	      3.38864800	      0.15602413	      0.72301634	     -0.10368913	     76.59951880	    -13.41605499	      1.95120252	     77.17187367	      1.34690329	     23.28537337	    -12.62896867	     -7.49999987	     76.33548709	     -8.16779822	     -7.59839942	     76.59750840	      1.33687872	     25.58246107	      5.91013013	     -7.49999987	    -30.89798874	      0.28374262	      0.76336211	     86.22878829	    -16.93469295	     31.64937268	    125.55510089	    105.27020352	     97.29742507	    -15.62531150	     49.06241458	    118.73624443	     99.81508958
      4.89583330	    -26.67511701	      1.43176164	      3.40257848	      0.15763007	      0.72224096	     -0.10381078	     76.33675220	    -13.56014064	      1.77164585	     77.06077610	      1.34496427	     23.08351205	    -12.68688791	     -7.49999987	     76.02851388	     -8.03050191	     -7.63387707	     76.34700763	      1.33250666	     25.51386227	      5.51692902	     -7.49999987	    -30.59475493	      0.32463344	      0.86766440	     86.05961228	    -17.09032212	     31.54352189	    125.42793549	    106.70381263	     97.07254895	    -15.41862575	     49.18752288	    118.66312014	    100.93967399
      4.90000000	    -26.60184064	      1.46424778	      3.31117454	      0.15750783	      0.72428472	     -0.10534601	     76.06418477	    -13.63961813	      1.65245591	     76.81281190	      1.34063648	     22.87850614	    -12.76818487	     -7.49999987	     75.61662204	     -7.93797409	     -7.69489905	     75.99143548	      1.32630075	     25.78294950	      5.50471487	     -7.49999987	    -30.22559082	      0.37255341	      0.92563691	     85.92010769	    -17.11474509	     31.60197003	    125.23813546	    106.20351773	     96.70546650	    -15.42098568	     49.18531144	    118.71291097	    100.12620230
      4.90416670	    -26.46624466	      1.49419985	      3.30813084	      0.15854910	      0.72793138	     -0.10553993	     75.56230912	    -13.77228770	      1.46749375	     76.36316061	      1.33278858	     22.86912850	    -12.62205805	     -7.49999987	     75.08099677	     -7.74873129	     -7.63452718	     75.44203651	      1.31671193	     25.53037546	      5.23120888	     -7.49999987	    -29.91564898	      0.50763980	      0.89736698	     85.56138984	    -17.01199812	     31.59206586	    125.01844473	    106.48822088	     96.20453725	    -15.45456813	     49.05819874	    118.85592024	    100.32959256
      4.90833330	    -26.28556312	      1.50351963	      3.28461268	      0.16054738	      0.73126094	     -0.10510708	     74.97459098	    -13.78023414	      1.36205797	     75.87355716	      1.32424339	     22.49255500	    -12.93873157	     -7.49999987	     74.43496411	     -7.65790679	     -7.63499956	     74.88346189	      1.30696297	     25.37799010	      5.27000298	     -7.49999987	    -29.68885333	      0.51813359	      0.95129466	     85.07360997	    -16.98496906	     31.32582539	    124.83555696	    106.35766263	     95.77996988	    -15.39303989	     48.94804172	    118.51542281	    100.30595480
      4.91250000	    -26.17920421	      1.52484897	      3.31444252	      0.16094132	      0.73324318	     -0.10433084	     74.41332392	    -13.80004133	      1.26384619	     75.29154972	      1.31408544	     22.79089526	    -12.19308210	     -7.49999987	     73.96515363	     -7.57729721	     -7.63917687	     74.38477384	      1.29825922	     25.32832599	      5.15970646	     -7.49999987	    -29.41596730	      0.54646394	      0.80901611	     84.68962402	    -16.84955639	     31.58843994	    124.86158783	    105.17148924	     95.39473564	    -15.54272301	     49.09754399	    118.73098689	     99.41079001
      4.91666670	    -26.04284872	      1.51241675	      3.38726394	      0.16120717	      0.73679458	     -0.10265185	     73.73808377	    -13.76143543	      1.14168546	     74.54079786	      1.30098235	     23.30038707	    -11.28921035	     -7.49999987	     73.46297316	     -7.51205455	     -7.59699060	     73.82791181	      1.28854014	     25.00384873	      4.74787033	     -7.49999987	    -29.16796453	      0.60137520	      0.64029947	     84.18257717	    -16.47789961	     31.49681785	    124.46317038	    106.57480482	     95.00441687	    -15.64585288	     49.15700584	    118.88092722	    100.11172935
